M48
; DRILL file {KiCad 9.0.0} date 2025-03-20T14:14:43+0100
; FORMAT={-:-/ absolute / metric / decimal}
; #@! TF.CreationDate,2025-03-20T14:14:43+01:00
; #@! TF.GenerationSoftware,Kicad,Pcbnew,9.0.0
; #@! TF.FileFunction,Plated,1,2,PTH
FMAT,2
METRIC
; #@! TA.AperFunction,Plated,PTH,ComponentDrill
T1C0.600
; #@! TA.AperFunction,Plated,PTH,ComponentDrill
T2C0.800
; #@! TA.AperFunction,Plated,PTH,ComponentDrill
T3C1.000
; #@! TA.AperFunction,Plated,PTH,ComponentDrill
T4C1.500
; #@! TA.AperFunction,Plated,PTH,ViaDrill
T5C3.200
%
G90
G05
T1
X103.0Y-124.0
X103.0Y-125.5
X171.723Y-59.5
X173.223Y-59.5
X197.5Y-108.478
X197.5Y-109.978
T2
X121.0Y-58.42
X121.0Y-68.58
X125.5Y-58.42
X125.5Y-68.58
X128.42Y-98.5
X128.42Y-102.5
X128.42Y-106.5
X128.42Y-115.5
X128.42Y-119.0
X128.42Y-122.5
X128.42Y-126.0
X128.5Y-94.5
X138.58Y-98.5
X138.58Y-102.5
X138.58Y-106.5
X138.58Y-115.5
X138.58Y-119.0
X138.58Y-122.5
X138.58Y-126.0
X138.66Y-94.5
X161.84Y-121.5
X161.84Y-125.5
X161.92Y-113.7
X161.92Y-117.5
X172.0Y-121.5
X172.0Y-125.5
X172.08Y-113.7
X172.08Y-117.5
X175.85Y-91.42
X175.85Y-101.58
X177.5Y-57.42
X177.5Y-67.58
X179.85Y-91.5
X179.85Y-101.66
X182.5Y-57.42
X182.5Y-67.58
X183.85Y-91.42
X183.85Y-101.58
X187.0Y-57.42
X187.0Y-67.58
X188.0Y-91.42
X188.0Y-101.58
T3
X103.0Y-107.3
X103.0Y-109.84
X103.0Y-112.38
X103.0Y-114.92
X103.0Y-117.46
X103.0Y-120.0
X109.65Y-107.595
X109.65Y-110.135
X109.65Y-112.675
X109.65Y-115.215
X109.65Y-117.755
X109.65Y-120.295
X109.65Y-122.835
X109.65Y-125.375
X115.96Y-51.5
X118.5Y-51.5
X121.04Y-51.5
X122.35Y-107.595
X122.35Y-110.135
X122.35Y-112.675
X122.35Y-115.215
X122.35Y-117.755
X122.35Y-120.295
X122.35Y-122.835
X122.35Y-125.375
X123.58Y-51.5
X139.6Y-51.98
X139.6Y-54.52
X139.6Y-57.06
X139.6Y-59.6
X139.6Y-62.14
X139.6Y-64.68
X139.6Y-67.22
X139.6Y-69.76
X139.6Y-72.3
X139.6Y-74.84
X139.6Y-77.38
X139.6Y-79.92
X139.6Y-82.46
X139.6Y-85.0
X139.6Y-87.54
X165.0Y-51.98
X165.0Y-54.52
X165.0Y-57.06
X165.0Y-59.6
X165.0Y-62.14
X165.0Y-64.68
X165.0Y-67.22
X165.0Y-69.76
X165.0Y-72.3
X165.0Y-74.84
X165.0Y-77.38
X165.0Y-79.92
X165.0Y-82.46
X165.0Y-85.0
X165.0Y-87.54
X172.8Y-53.0
X175.34Y-53.0
X177.88Y-53.0
X179.0Y-108.46
X179.0Y-111.0
X179.0Y-113.54
X179.0Y-116.081
X179.0Y-118.62
X179.0Y-121.16
X179.0Y-123.7
X179.0Y-126.24
X180.42Y-53.0
X182.96Y-53.0
X185.5Y-53.0
X188.04Y-53.0
X190.58Y-53.0
X191.7Y-108.46
X191.7Y-111.0
X191.7Y-113.54
X191.7Y-116.081
X191.7Y-118.62
X191.7Y-121.16
X191.7Y-123.7
X191.7Y-126.24
X197.5Y-114.0
X197.5Y-116.54
X197.5Y-119.081
X197.5Y-121.62
X197.5Y-124.16
X197.5Y-126.7
T4
X131.0Y-87.0
X173.0Y-87.0
T5
X104.5Y-54.0
X147.5Y-124.0
X194.5Y-59.5
M30
